# xmcd CD database file
# Copyright (C) 1995-1998 Ti Kan
#
# Track frame offsets:
#	150
#	12682
#	27352
#	39737
#	55382
#	70900
#	82612
#	94490
#	107617
#	122102
#	132770
#	147250
#	162955
#	175532
#	190227
#
# Disc length: 2702 seconds
#
# Revision: 2
# Processed by: cddbd v1.4PL0 Copyright (c) Steve Scherf et al.
# Submitted via: CDex 1.30Release
#
DISCID=cb0a8c0f
DTITLE=Lost Highway - A Lifetime of Sorrow
DYEAR=1900
DGENRE=Country
TTITLE0=Arrow Through My Heart
TTITLE1=Wild Mountain Flowers for Mary
TTITLE2=Time Waits for No One
TTITLE3=Home in the Mountains
TTITLE4=Four Rode By
TTITLE5=Sing Hallelujah
TTITLE6=Lifetime of Sorrow
TTITLE7=McLeod's Reel
TTITLE8=On My Mind
TTITLE9=Shake the Master's Hand
TTITLE10=I'm Not Over You
TTITLE11=I Don't Believe I'll Fall In Love Today
TTITLE12=Jolene and Big Bill
TTITLE13=Tennessee Snow
TTITLE14=I'm Going To Love You (When I Get Home)
EXTD=ID3G:   2
EXTT0=
EXTT1=
EXTT2=
EXTT3=
EXTT4=
EXTT5=
EXTT6=
EXTT7=
EXTT8=
EXTT9=
EXTT10=
EXTT11=
EXTT12=
EXTT13=
EXTT14=
PLAYORDER=
